<?xml version="1.0" standalone="no"?><!DOCTYPE svg PUBLIC "-//W3C//DTD SVG 1.1//EN" "http://www.w3.org/Graphics/SVG/1.1/DTD/svg11.dtd"><svg class="icon" width="200px" height="200.00px" viewBox="0 0 1024 1024" version="1.1" xmlns="http://www.w3.org/2000/svg"><path fill="#333333" d="M415.7 353.1l-113.5 27.4c-17.2 4.1-27.7 21.4-23.6 38.6 3.5 14.7 16.6 24.5 31.1 24.5 2.5 0 5-0.3 7.5-0.9l113.5-27.4c17.2-4.1 27.7-21.4 23.6-38.6-4.1-17.2-21.4-27.7-38.6-23.6zM415.7 499.2l-113.5 27.4c-17.2 4.1-27.7 21.4-23.6 38.6 3.5 14.7 16.6 24.5 31.1 24.5 2.5 0 5-0.3 7.5-0.9l113.5-27.4c17.2-4.1 27.7-21.4 23.6-38.6-4.1-17.2-21.4-27.8-38.6-23.6zM736.9 526.6l-113.5-27.4c-17.2-4.1-34.5 6.4-38.6 23.6-4.1 17.2 6.4 34.5 23.6 38.6l113.5 27.4c2.5 0.6 5 0.9 7.5 0.9 14.4 0 27.5-9.8 31.1-24.5 4.2-17.2-6.4-34.5-23.6-38.6zM864 832h-13.4V448.7c0-13.7-8.8-25.9-21.8-30.3l-284.3-96.1V160c0-9.9-4.6-19.2-12.3-25.2-7.8-6.1-17.9-8.2-27.5-5.8l-306.1 77.3c-14.2 3.6-24.2 16.4-24.2 31V832H160c-17.7 0-32 14.3-32 32s14.3 32 32 32h704c17.7 0 32-14.3 32-32s-14.3-32-32-32zM238.4 262.3l242.1-61.2V832H238.4V262.3zM544.5 832V389.8l242.1 81.8V832H544.5z" /></svg>