<?xml version="1.0" standalone="no"?><!DOCTYPE svg PUBLIC "-//W3C//DTD SVG 1.1//EN" "http://www.w3.org/Graphics/SVG/1.1/DTD/svg11.dtd"><svg class="icon" width="200px" height="200.00px" viewBox="0 0 1024 1024" version="1.1" xmlns="http://www.w3.org/2000/svg"><path fill="#333333" d="M866 362.2c-19.3-45.7-47-86.8-82.3-122-35.3-35.3-76.3-62.9-122-82.3-47.4-20-97.7-30.2-149.5-30.2s-102.1 10.2-149.5 30.2c-45.7 19.3-86.8 47-122 82.3-35.3 35.3-62.9 76.3-82.3 122-20 47.4-30.2 97.7-30.2 149.5s10.2 102.1 30.2 149.5c19.3 45.7 47 86.8 82.3 122 35.3 35.3 76.3 62.9 122 82.3 47.4 20 97.7 30.2 149.5 30.2s102.1-10.2 149.5-30.2c45.7-19.3 86.8-47 122-82.3 35.3-35.3 62.9-76.3 82.3-122 20-47.4 30.2-97.7 30.2-149.5 0-51.9-10.1-102.2-30.2-149.5zM512.2 831.7c-176.4 0-320-143.6-320-320s143.6-320 320-320 320 143.6 320 320-143.5 320-320 320zM479.6 644.4h65.3v66.8h-65.3zM589.9 343.7c-11-11-23.7-19.2-37.8-24.5-14-5.3-29-7.6-44.6-6.9-14.7 0.8-28.6 4.1-41.5 10-12.8 5.8-24.1 13.7-33.8 23.3-9.7 9.7-17.4 21.1-23.1 33.9-5.7 12.9-8.8 26.7-9.2 41-0.4 7.7 0.1 15.2 1.5 22.5 1.3 7.2 3.3 14.2 6 21l4.7 12.1 60.6-23.3-4.1-11.9c-2.1-6.1-3.1-12.1-2.8-17.8 0.5-12.6 4.9-22.9 13.4-31.5 8.4-8.6 18.6-13 31.1-13.5h0.5c6.5-0.5 12.4 0.3 17.9 2.4 5.7 2.2 11 5.6 15.8 10 9.5 9.6 14.2 20.7 14.2 34 0 9-2.2 17-6.8 24.3-4.6 7.4-10.8 12.9-18.7 16.9l-0.1 0.1c-16.5 8.4-29.6 20.3-39.1 35.4-9.5 15.1-14.3 32.2-14.3 50.7v70.4h65.8v-70.4c0-6 1.5-11.2 4.5-16 3-4.8 7.2-8.4 12.7-11.1l0.3-0.1c19.1-9.8 34.2-23.6 45.1-41.2 10.9-17.6 16.5-37.5 16.5-59 0-15.5-3.1-30.4-9.2-44.3-6.1-13.7-14.6-26-25.5-36.5z" /></svg>