<?xml version="1.0" standalone="no"?><!DOCTYPE svg PUBLIC "-//W3C//DTD SVG 1.1//EN" "http://www.w3.org/Graphics/SVG/1.1/DTD/svg11.dtd"><svg class="icon" width="200px" height="200.00px" viewBox="0 0 1024 1024" version="1.1" xmlns="http://www.w3.org/2000/svg"><path fill="#333333" d="M864 160H160c-17.7 0-32 14.3-32 32v640c0 17.7 14.3 32 32 32h704c17.7 0 32-14.3 32-32V192c0-17.7-14.3-32-32-32z m-32 64v54.2L512.5 482 192 277.5V224h640zM192 800V353.5L495.3 547c5.2 3.3 11.2 5 17.2 5s12-1.7 17.2-5L832 354.1V800H192z" /></svg>