<?xml version="1.0" standalone="no"?><!DOCTYPE svg PUBLIC "-//W3C//DTD SVG 1.1//EN" "http://www.w3.org/Graphics/SVG/1.1/DTD/svg11.dtd"><svg class="icon" width="200px" height="200.00px" viewBox="0 0 1024 1024" version="1.1" xmlns="http://www.w3.org/2000/svg"><path fill="#333333" d="M698.5 128.2h-373c-56 0-101.5 45.5-101.5 101.5v564.6c0 56 45.5 101.5 101.5 101.5h373c56 0 101.5-45.5 101.5-101.5V229.7c0-56-45.5-101.5-101.5-101.5zM512 847.9c-26.6 0-48.1-21.5-48.1-48.1s21.5-48.1 48.1-48.1 48.1 21.5 48.1 48.1-21.5 48.1-48.1 48.1z m224-142.3H288V229.7c0-20.7 16.8-37.5 37.5-37.5h373c20.7 0 37.5 16.8 37.5 37.5v475.9z" /></svg>