<?xml version="1.0" standalone="no"?><!DOCTYPE svg PUBLIC "-//W3C//DTD SVG 1.1//EN" "http://www.w3.org/Graphics/SVG/1.1/DTD/svg11.dtd"><svg class="icon" width="200px" height="200.00px" viewBox="0 0 1024 1024" version="1.1" xmlns="http://www.w3.org/2000/svg"><path fill="#333333" d="M864 172.6H160c-17.7 0-32 14.3-32 32v512c0 17.7 14.3 32 32 32h253.5l74.3 91.1c6.1 7.5 15.2 11.8 24.8 11.8s18.7-4.3 24.8-11.8l74.3-91.1H864c17.7 0 32-14.3 32-32v-512c0-17.7-14.3-32-32-32z m-32 512H596.4c-9.6 0-18.7 4.3-24.8 11.8l-59.1 72.4-59.1-72.4c-6.1-7.5-15.2-11.8-24.8-11.8H192v-448h640v448zM494.5 652.7h42.8c6.2 0 11.2-5 11.2-11.2v-44.3c0-6.2-5-11.2-11.2-11.2h-42.8c-6.2 0-11.2 5-11.2 11.2v44.3c0 6.2 5 11.2 11.2 11.2zM411.1 423.4c2.6 6.7 10.1 10 16.8 7.4l36.8-14.1c6.6-2.5 9.9-9.8 7.6-16.4-2.1-6.1-3.1-12.1-2.8-17.8 0.5-12.6 4.9-22.9 13.4-31.5 8.4-8.6 18.6-13 31.1-13.5h0.5c6.5-0.5 12.4 0.3 17.9 2.4 5.7 2.2 11 5.6 15.8 10 9.6 9.6 14.2 20.7 14.2 34 0 9-2.2 17-6.8 24.3-4.6 7.4-10.8 12.9-18.7 16.9l-0.1 0.1c-16.5 8.4-29.6 20.3-39.1 35.4-9.5 15.1-14.3 32.2-14.3 50.7v33c0 7.2 5.8 13 13 13h39.8c7.2 0 13-5.8 13-13v-33c0-6 1.5-11.2 4.5-16 3-4.8 7.2-8.4 12.7-11.1l0.3-0.1c19.1-9.8 34.2-23.6 45.2-41.2 10.9-17.6 16.5-37.5 16.5-59 0-15.5-3.1-30.4-9.2-44.3-6-13.7-14.6-26-25.5-36.5-11-11-23.7-19.2-37.8-24.5-14-5.3-29-7.6-44.6-6.9-14.7 0.8-28.6 4.1-41.5 10-12.8 5.8-24.1 13.7-33.8 23.3-9.7 9.7-17.4 21.1-23.1 33.9-5.7 12.9-8.8 26.7-9.2 41-0.4 7.7 0.1 15.2 1.5 22.5 1.3 7.1 3.3 14.2 5.9 21z" /></svg>